<svg width="169" height="169" viewBox="0 0 169 169" fill="none" xmlns="http://www.w3.org/2000/svg">
<path d="M84.5 166.5C95.2703 166.513 105.937 164.398 115.888 160.277C125.838 156.155 134.876 150.107 142.482 142.482C150.107 134.876 156.155 125.838 160.277 115.888C164.398 105.937 166.513 95.2703 166.5 84.5C166.513 73.7297 164.398 63.0629 160.277 53.1124C156.155 43.162 150.107 34.124 142.482 26.5178C134.876 18.8925 125.838 12.8453 115.888 8.72351C105.937 4.60177 95.2703 2.48678 84.5 2.50006C73.7297 2.48678 63.0629 4.60177 53.1124 8.72351C43.162 12.8453 34.124 18.8925 26.5178 26.5178C18.8925 34.124 12.8453 43.162 8.72351 53.1124C4.60177 63.0629 2.48678 73.7297 2.50006 84.5C2.48678 95.2703 4.60177 105.937 8.72351 115.888C12.8453 125.838 18.8925 134.876 26.5178 142.482C34.124 150.107 43.162 156.155 53.1124 160.277C63.0629 164.398 73.7297 166.513 84.5 166.5Z" stroke="white" stroke-width="5" stroke-linejoin="round"/>
<path d="M51.7 84.4999L76.2999 109.1L125.5 59.8999" stroke="white" stroke-width="5" stroke-linecap="round" stroke-linejoin="round"/>
</svg>
