<svg width="24" height="24" viewBox="0 0 24 24" fill="none" xmlns="http://www.w3.org/2000/svg">
<circle cx="12" cy="12" r="12" fill="#8623C8"/>
<path d="M11.5789 4.00189C10.226 4.01761 7.3175 4.23156 5.6907 5.66788C4.48061 6.8218 4.0581 8.52784 4.00858 10.6375C3.96749 12.7395 3.91797 16.6869 7.87171 17.7618V19.3988C7.87171 19.3988 7.84695 20.0539 8.29684 20.1882C8.85105 20.3571 9.16661 19.8531 9.69343 19.3116L10.6759 18.2424C13.3811 18.4589 15.4531 17.96 15.6917 17.886C16.2407 17.7171 19.3325 17.3369 19.8377 13.3889C20.3561 9.31166 19.5854 6.74271 18.1941 5.58068H18.1857C17.7658 5.20854 16.0784 4.02522 12.3085 4.01203C12.3085 4.01203 12.0288 3.99429 11.5789 4.00189ZM11.6253 5.14821C12.0093 5.14568 12.2427 5.16139 12.2427 5.16139C15.4336 5.16951 16.9566 6.09376 17.3159 6.40505C18.4875 7.37139 19.0913 9.68734 18.6493 13.0913C18.2294 16.3919 15.7218 16.6007 15.2576 16.7432C15.0601 16.804 13.2352 17.237 10.9362 17.0945C10.9362 17.0945 9.22404 19.083 8.68879 19.595C8.60398 19.6848 8.50494 19.7112 8.44172 19.698C8.35111 19.6767 8.32371 19.5687 8.32898 19.4206L8.34531 16.7037C4.99214 15.8113 5.1897 12.4444 5.22552 10.6856C5.26661 8.92685 5.60957 7.488 6.63053 6.51355C8.00499 5.31755 10.4757 5.15632 11.6253 5.14821ZM11.8781 6.90647C11.8505 6.9062 11.8231 6.9112 11.7976 6.92116C11.772 6.93112 11.7487 6.94586 11.7291 6.96453C11.7094 6.98319 11.6938 7.00541 11.6831 7.0299C11.6725 7.0544 11.6669 7.08068 11.6669 7.10724C11.6669 7.22081 11.7628 7.31055 11.8781 7.31055C12.4005 7.30062 12.9198 7.39051 13.4058 7.57501C13.8919 7.7595 14.335 8.03494 14.7097 8.38538C15.4752 9.10075 15.8482 10.062 15.8624 11.3189C15.8624 11.4299 15.9557 11.5222 16.0737 11.5222V11.514C16.1293 11.5142 16.1827 11.4932 16.2223 11.4555C16.2618 11.4179 16.2844 11.3668 16.2849 11.3133C16.3109 10.7216 16.2114 10.1311 15.9925 9.57769C15.7736 9.02427 15.4399 8.51957 15.0116 8.09436C14.1777 7.31004 13.1209 6.90647 11.8781 6.90647ZM9.10129 7.37139C8.95217 7.35034 8.80006 7.37915 8.67036 7.45301H8.65929C8.35821 7.6231 8.08691 7.83783 7.85538 8.08929C7.66309 8.30325 7.55878 8.51973 7.53138 8.72811C7.51505 8.85232 7.52612 8.97654 7.56457 9.09517L7.57827 9.10328C7.79479 9.71574 8.07769 10.3049 8.42328 10.8595C8.86857 11.6387 9.41641 12.3593 10.0532 13.0036L10.0722 13.03L10.1022 13.0513L10.1212 13.0726L10.1433 13.0908C10.8152 13.7055 11.5659 14.2351 12.377 14.6671C13.3042 15.1528 13.8668 15.3824 14.2045 15.4777V15.4828C14.3036 15.5117 14.3937 15.5249 14.4843 15.5249C14.7721 15.5047 15.0446 15.3922 15.2582 15.2055C15.5189 14.9832 15.7396 14.7209 15.9114 14.4293V14.4242C16.0731 14.1312 16.0183 13.8538 15.785 13.6662C15.3175 13.2731 14.8121 12.9239 14.2757 12.6234C13.9164 12.4358 13.5513 12.5493 13.4032 12.7395L13.0877 13.1222C12.926 13.3124 12.632 13.286 12.632 13.286L12.6236 13.2911C10.4315 12.7521 9.84673 10.6162 9.84673 10.6162C9.84673 10.6162 9.81934 10.3257 10.0222 10.1776L10.4173 9.87138C10.6064 9.72334 10.7381 9.3725 10.5353 9.02622C10.2252 8.50918 9.86309 8.02267 9.45425 7.57368C9.36487 7.46783 9.23947 7.39582 9.10024 7.37037L9.10129 7.37139ZM12.2427 7.9737C11.9629 7.9737 11.9629 8.38031 12.2453 8.38031C12.9478 8.3915 13.6169 8.6707 14.1055 9.15652C14.3261 9.39076 14.4957 9.66523 14.6041 9.96368C14.7125 10.2621 14.7576 10.5785 14.7366 10.894C14.7376 10.9474 14.7602 10.9983 14.7997 11.0358C14.8392 11.0734 14.8924 11.0945 14.9479 11.0948L14.9563 11.1054C15.0122 11.105 15.0657 11.0835 15.1052 11.0454C15.1447 11.0074 15.1671 10.9559 15.1675 10.9021C15.1865 10.0965 14.9263 9.42066 14.4158 8.87919C13.9027 8.33772 13.1867 8.03403 12.2727 7.9737H12.2427ZM12.5888 9.06678C12.3006 9.05867 12.2896 9.47339 12.5751 9.4815C13.2694 9.51598 13.6066 9.85364 13.6509 10.5482C13.6521 10.6009 13.6745 10.651 13.7135 10.688C13.7524 10.725 13.8048 10.7459 13.8595 10.7465H13.8679C13.8961 10.7453 13.9237 10.7387 13.9492 10.7272C13.9747 10.7156 13.9976 10.6993 14.0165 10.6791C14.0354 10.659 14.0499 10.6354 14.0592 10.6098C14.0685 10.5842 14.0724 10.5571 14.0707 10.53C14.0212 9.62448 13.5081 9.11444 12.5972 9.06729L12.5888 9.06678Z" fill="white"/>
</svg>
